<svg width="40" height="40" viewBox="0 0 40 40" fill="none" xmlns="http://www.w3.org/2000/svg">
<path d="M14.1094 15L20 18.2188L35.2656 10L29.375 6.78125L14.1094 15Z" fill="url(#paint0_linear_448_2282)"/>
<path d="M13.5938 23.4609L19.5312 26.7031V19.0234L13.5938 15.7891V23.4609Z" fill="url(#paint1_linear_448_2282)"/>
<path d="M4.73438 10L10.625 13.2188L25.8906 5L20 1.78125L4.73438 10Z" fill="url(#paint2_linear_448_2282)"/>
<path d="M20.4688 26.7188L35.7812 18.4687V10.7891L20.4688 19.0312V26.7188Z" fill="url(#paint3_linear_448_2282)"/>
<path d="M28.9063 32.9688V25.2813L27 24.2578L25.5781 25.0234L27.0937 25.8359C27.1691 25.8757 27.2322 25.9353 27.2763 26.0082C27.3203 26.0812 27.3437 26.1648 27.3438 26.25V32.1406L28.9063 32.9688Z" fill="url(#paint4_linear_448_2282)"/>
<path d="M11.0938 21.7188L12.6562 20.8828V15.0078C12.6541 14.9231 12.6756 14.8395 12.7184 14.7663C12.7612 14.6932 12.8235 14.6334 12.8984 14.5938L26.4062 7.30469V5.78906L11.0938 14.0313V21.7188Z" fill="url(#paint5_linear_448_2282)"/>
<path d="M26.4062 27.0391L20.4688 30.2812V37.9609L26.4062 34.7187V27.0391Z" fill="url(#paint6_linear_448_2282)"/>
<path d="M35.2656 21.2578L33.9063 20.5391L27.9922 23.7266L29.375 24.4688L35.2656 21.2578Z" fill="url(#paint7_linear_448_2282)"/>
<path d="M35.7812 22.0391L29.8438 25.2812V32.9609L35.7812 29.7187V22.0391Z" fill="url(#paint8_linear_448_2282)"/>
<path d="M19.5312 30.2734L4.21875 22.0312V29.7187L19.5312 37.9688V30.2734Z" fill="url(#paint9_linear_448_2282)"/>
<path d="M25.8906 26.25L24.5938 25.5547L20.2187 27.9141C20.1508 27.9525 20.0741 27.9727 19.9961 27.9727C19.9181 27.9727 19.8414 27.9525 19.7734 27.9141L12.8984 24.1641C12.8253 24.1224 12.7644 24.0622 12.7219 23.9895C12.6794 23.9168 12.6567 23.8342 12.6562 23.75V21.9297L10.8438 22.9063C10.7758 22.9447 10.6991 22.9648 10.6211 22.9648C10.5431 22.9648 10.4664 22.9447 10.3984 22.9063L6.01562 20.5312L4.72656 21.2422L20 29.4688L25.8906 26.25Z" fill="url(#paint10_linear_448_2282)"/>
<path d="M4.21875 18.4766L6.24219 19.5859L10.1562 21.7109V14.0234L4.21875 10.7891V18.4766Z" fill="url(#paint11_linear_448_2282)"/>
<defs>
<linearGradient id="paint0_linear_448_2282" x1="24.6875" y1="6.78125" x2="24.6875" y2="18.2187" gradientUnits="userSpaceOnUse">
<stop stop-color="#543DE7"/>
<stop offset="1" stop-color="#7F39F8"/>
</linearGradient>
<linearGradient id="paint1_linear_448_2282" x1="16.5625" y1="15.7891" x2="16.5625" y2="26.7031" gradientUnits="userSpaceOnUse">
<stop stop-color="#543DE7"/>
<stop offset="1" stop-color="#7F39F8"/>
</linearGradient>
<linearGradient id="paint2_linear_448_2282" x1="15.3125" y1="1.78125" x2="15.3125" y2="13.2187" gradientUnits="userSpaceOnUse">
<stop stop-color="#543DE7"/>
<stop offset="1" stop-color="#7F39F8"/>
</linearGradient>
<linearGradient id="paint3_linear_448_2282" x1="28.125" y1="10.7891" x2="28.125" y2="26.7188" gradientUnits="userSpaceOnUse">
<stop stop-color="#543DE7"/>
<stop offset="1" stop-color="#7F39F8"/>
</linearGradient>
<linearGradient id="paint4_linear_448_2282" x1="27.2422" y1="24.2578" x2="27.2422" y2="32.9688" gradientUnits="userSpaceOnUse">
<stop stop-color="#543DE7"/>
<stop offset="1" stop-color="#7F39F8"/>
</linearGradient>
<linearGradient id="paint5_linear_448_2282" x1="18.75" y1="5.78906" x2="18.75" y2="21.7188" gradientUnits="userSpaceOnUse">
<stop stop-color="#543DE7"/>
<stop offset="1" stop-color="#7F39F8"/>
</linearGradient>
<linearGradient id="paint6_linear_448_2282" x1="23.4375" y1="27.0391" x2="23.4375" y2="37.9609" gradientUnits="userSpaceOnUse">
<stop stop-color="#543DE7"/>
<stop offset="1" stop-color="#7F39F8"/>
</linearGradient>
<linearGradient id="paint7_linear_448_2282" x1="31.6289" y1="20.5391" x2="31.6289" y2="24.4688" gradientUnits="userSpaceOnUse">
<stop stop-color="#543DE7"/>
<stop offset="1" stop-color="#7F39F8"/>
</linearGradient>
<linearGradient id="paint8_linear_448_2282" x1="32.8125" y1="22.0391" x2="32.8125" y2="32.9609" gradientUnits="userSpaceOnUse">
<stop stop-color="#543DE7"/>
<stop offset="1" stop-color="#7F39F8"/>
</linearGradient>
<linearGradient id="paint9_linear_448_2282" x1="11.875" y1="22.0312" x2="11.875" y2="37.9688" gradientUnits="userSpaceOnUse">
<stop stop-color="#543DE7"/>
<stop offset="1" stop-color="#7F39F8"/>
</linearGradient>
<linearGradient id="paint10_linear_448_2282" x1="15.3086" y1="20.5312" x2="15.3086" y2="29.4688" gradientUnits="userSpaceOnUse">
<stop stop-color="#543DE7"/>
<stop offset="1" stop-color="#7F39F8"/>
</linearGradient>
<linearGradient id="paint11_linear_448_2282" x1="7.1875" y1="10.7891" x2="7.1875" y2="21.7109" gradientUnits="userSpaceOnUse">
<stop stop-color="#543DE7"/>
<stop offset="1" stop-color="#7F39F8"/>
</linearGradient>
</defs>
</svg>
