<svg width="40" height="40" viewBox="0 0 40 40" fill="none" xmlns="http://www.w3.org/2000/svg">
<g clip-path="url(#clip0_448_2311)">
<path d="M0.839844 22.9336C3.2541 31.0016 10.785 37.1719 20.001 37.1719C29.2145 37.1719 36.7473 31.0036 39.1621 22.9336C31.0385 29.196 8.90191 29.1484 0.839844 22.9336Z" fill="url(#paint0_linear_448_2311)"/>
<path d="M1.88471 20.7509C2.94094 21.6679 4.42124 22.4797 6.28452 23.1639C13.9002 25.9602 26.0965 25.9615 33.7156 23.1639C35.5788 22.4797 37.0592 21.668 38.1155 20.7509C40.7549 18.4593 40.6967 15.4068 37.466 13.0811C36.5507 12.4222 35.4124 11.8308 34.0678 11.3122C34.3807 12.4974 34.5482 13.7411 34.5482 15.0233C34.5482 15.9169 34.2019 17.2157 32.5523 18.3279C31.7322 18.8808 30.6274 19.3576 29.2687 19.7451C22.9447 21.5485 11.7023 21.1959 7.4482 18.3279C5.79857 17.2157 5.45237 15.9169 5.45237 15.0233C5.45237 13.741 5.61982 12.4973 5.93276 11.312C4.58806 11.8307 3.44956 12.4222 2.53427 13.0811C-0.694885 15.4056 -0.756532 18.4581 1.88471 20.7509Z" fill="url(#paint1_linear_448_2311)"/>
<path d="M19.9997 18.5008C26.7349 18.5008 32.1947 16.9439 32.1947 15.0232C32.1947 8.28809 26.7349 2.82812 19.9997 2.82812C13.2646 2.82812 7.80469 8.28801 7.80469 15.0232C7.80461 16.9439 13.2646 18.5008 19.9997 18.5008Z" fill="url(#paint2_linear_448_2311)"/>
</g>
<defs>
<linearGradient id="paint0_linear_448_2311" x1="20.001" y1="22.9336" x2="20.001" y2="37.1719" gradientUnits="userSpaceOnUse">
<stop stop-color="#543DE7"/>
<stop offset="1" stop-color="#7F39F8"/>
</linearGradient>
<linearGradient id="paint1_linear_448_2311" x1="20" y1="11.312" x2="20" y2="25.2616" gradientUnits="userSpaceOnUse">
<stop stop-color="#543DE7"/>
<stop offset="1" stop-color="#7F39F8"/>
</linearGradient>
<linearGradient id="paint2_linear_448_2311" x1="19.9997" y1="2.82812" x2="19.9997" y2="18.5008" gradientUnits="userSpaceOnUse">
<stop stop-color="#543DE7"/>
<stop offset="1" stop-color="#7F39F8"/>
</linearGradient>
<clipPath id="clip0_448_2311">
<rect width="40" height="40" fill="white"/>
</clipPath>
</defs>
</svg>
