<svg width="43" height="40" viewBox="0 0 43 40" fill="none" xmlns="http://www.w3.org/2000/svg">
<path d="M9.47032 11.8643L3.30078 22.5695H9.22748L15.397 11.8643H9.47032Z" fill="url(#paint0_linear_448_2328)"/>
<path d="M29.152 11.297L25.6055 5.14315L22.8462 0.355957L19.8828 5.49818L26.1882 16.4392L29.152 11.297Z" fill="url(#paint1_linear_448_2328)"/>
<path d="M19.2703 5.85352H0L6.05735 16.3647L9.05999 11.1543L16.2179 11.159L19.5273 16.7955H25.5762L19.2703 5.85352Z" fill="url(#paint2_linear_448_2328)"/>
<path d="M19.2703 5.14317L22.2346 0H2.96429L0 5.14317H19.2703Z" fill="url(#paint3_linear_448_2328)"/>
<path d="M15.5229 22.9244L18.9132 17.1507L16.0157 12.2158L9.84375 22.9249L19.4789 39.6443L25.5362 29.1331H19.1679L15.5229 22.9244Z" fill="url(#paint4_linear_448_2328)"/>
<path d="M3.30078 23.2798L12.9364 40.0002H18.8631L9.22511 23.2798H3.30078Z" fill="url(#paint5_linear_448_2328)"/>
<path d="M16.5547 23.2798L19.5744 28.423H32.2779L29.3141 23.2798H16.5547Z" fill="url(#paint6_linear_448_2328)"/>
<path d="M32.8911 28.0673L42.5268 11.3479L39.5653 6.20947L29.9297 22.9289L32.8911 28.0673Z" fill="url(#paint7_linear_448_2328)"/>
<path d="M26.3967 17.5055H19.528L16.5547 22.5696H29.3137L38.9516 5.85352H26.8369L29.974 11.2973L26.3967 17.5055Z" fill="url(#paint8_linear_448_2328)"/>
<defs>
<linearGradient id="paint0_linear_448_2328" x1="9.3489" y1="11.8643" x2="9.3489" y2="22.5695" gradientUnits="userSpaceOnUse">
<stop stop-color="#543DE7"/>
<stop offset="1" stop-color="#7F39F8"/>
</linearGradient>
<linearGradient id="paint1_linear_448_2328" x1="24.5174" y1="0.355957" x2="24.5174" y2="16.4392" gradientUnits="userSpaceOnUse">
<stop stop-color="#543DE7"/>
<stop offset="1" stop-color="#7F39F8"/>
</linearGradient>
<linearGradient id="paint2_linear_448_2328" x1="12.7881" y1="5.85352" x2="12.7881" y2="16.7955" gradientUnits="userSpaceOnUse">
<stop stop-color="#543DE7"/>
<stop offset="1" stop-color="#7F39F8"/>
</linearGradient>
<linearGradient id="paint3_linear_448_2328" x1="11.1173" y1="0" x2="11.1173" y2="5.14317" gradientUnits="userSpaceOnUse">
<stop stop-color="#543DE7"/>
<stop offset="1" stop-color="#7F39F8"/>
</linearGradient>
<linearGradient id="paint4_linear_448_2328" x1="17.69" y1="12.2158" x2="17.69" y2="39.6443" gradientUnits="userSpaceOnUse">
<stop stop-color="#543DE7"/>
<stop offset="1" stop-color="#7F39F8"/>
</linearGradient>
<linearGradient id="paint5_linear_448_2328" x1="11.0819" y1="23.2798" x2="11.0819" y2="40.0002" gradientUnits="userSpaceOnUse">
<stop stop-color="#543DE7"/>
<stop offset="1" stop-color="#7F39F8"/>
</linearGradient>
<linearGradient id="paint6_linear_448_2328" x1="24.4163" y1="23.2798" x2="24.4163" y2="28.423" gradientUnits="userSpaceOnUse">
<stop stop-color="#543DE7"/>
<stop offset="1" stop-color="#7F39F8"/>
</linearGradient>
<linearGradient id="paint7_linear_448_2328" x1="36.2282" y1="6.20947" x2="36.2282" y2="28.0673" gradientUnits="userSpaceOnUse">
<stop stop-color="#543DE7"/>
<stop offset="1" stop-color="#7F39F8"/>
</linearGradient>
<linearGradient id="paint8_linear_448_2328" x1="27.7532" y1="5.85352" x2="27.7532" y2="22.5696" gradientUnits="userSpaceOnUse">
<stop stop-color="#543DE7"/>
<stop offset="1" stop-color="#7F39F8"/>
</linearGradient>
</defs>
</svg>
