<svg width="150" height="150" viewBox="0 0 150 150" fill="none" xmlns="http://www.w3.org/2000/svg">
<path d="M123.339 115.034C126.13 117.994 130.792 118.131 133.753 115.34L145.195 104.552C148.36 101.568 148.263 96.5038 144.985 93.6428L130.306 80.8319C126.81 77.781 126.972 72.2971 130.641 69.4572L146.048 57.5316C149.488 54.8683 149.883 49.8191 146.899 46.6533L136.111 35.2114C133.32 32.2514 128.658 32.1142 125.698 34.9051L89.8131 68.737C86.8529 71.5278 86.7158 76.1898 89.5067 79.1499L123.339 115.034Z" fill="#893EFB"/>
<path d="M25.7366 34.1607C22.9457 31.2006 18.2835 31.0634 15.3235 33.8541L3.88363 44.6396C0.716981 47.6252 0.815289 52.6906 4.09538 55.551L18.6882 68.2768C22.1778 71.3198 22.0279 76.7896 18.377 79.637L3.0941 91.556C-0.328372 94.2251 -0.712874 99.2598 2.26458 102.418L12.9714 113.774C15.7624 116.734 20.4244 116.871 23.3846 114.08L59.1614 80.3495C62.1216 77.5587 62.2588 72.8968 59.4679 69.9367L25.7366 34.1607Z" fill="#893EFB"/>
<path d="M32.0005 123.225C29.0405 126.016 28.9032 130.678 31.6941 133.638L42.4799 145.078C45.4655 148.244 50.531 148.146 53.3914 144.866L66.1199 130.271C69.1622 126.782 74.6304 126.931 77.4786 130.58L89.4983 145.979C92.1682 149.4 97.2013 149.784 100.359 146.807L111.717 136.098C114.677 133.307 114.814 128.645 112.023 125.685L78.1906 89.8012C75.3997 86.8412 70.7376 86.7041 67.7774 89.4948L32.0005 123.225Z" fill="#5F41FB"/>
<path d="M117.059 25.7563C120.019 22.9655 120.156 18.3035 117.365 15.3435L106.577 3.9016C103.593 0.735869 98.5289 0.833129 95.6677 4.11115L82.8589 18.7869C79.8071 22.2834 74.3214 22.1209 71.4821 18.4499L59.6566 3.16055C56.9939 -0.282008 51.9429 -0.678017 48.7762 2.3075L37.3364 13.093C34.3764 15.8838 34.2392 20.5458 37.0301 23.5058L70.7613 59.2819C73.5522 62.2419 78.2143 62.3792 81.1745 59.5884L117.059 25.7563Z" fill="#5F41FB"/>
</svg>
