<svg width="200" height="51" viewBox="0 0 200 51" fill="none" xmlns="http://www.w3.org/2000/svg">
<path fill-rule="evenodd" clip-rule="evenodd" d="M40.0767 28.0531V44.7913L48.9939 39.6603V22.9222L40.0767 28.0531Z" fill="#BD2304"/>
<path fill-rule="evenodd" clip-rule="evenodd" d="M22.3378 10.4132L9.58126 17.7734L0.664062 12.6425L22.3378 0.151367L37.589 8.96241L28.7072 14.0933L22.3378 10.4132Z" fill="#DC2400"/>
<path fill-rule="evenodd" clip-rule="evenodd" d="M25.606 36.3956L40.0769 28.0531L48.9764 22.9045L40.0769 17.7736L25.606 26.1515V36.3956Z" fill="#DC2400"/>
<path fill-rule="evenodd" clip-rule="evenodd" d="M0.664062 12.6426V37.6603L22.3378 50.1515V39.8896L9.58126 32.5294V17.7736L0.664062 12.6426Z" fill="#BD2304"/>
<g clip-path="url(#clip0_67_2000)">
<path d="M83.2891 35.966C81.7081 36.586 79.7861 36.772 77.7401 36.772C77.4301 36.772 77.1201 36.772 76.8101 36.741C70.0831 36.431 65.1851 32.401 65.1851 25.271C65.1851 18.079 70.4241 13.677 77.4301 13.677C79.5691 13.677 81.6461 14.08 83.1961 14.824L82.9171 20.125C81.6461 19.536 79.8791 19.102 77.9571 19.102C73.2141 19.102 70.3311 21.675 70.3311 25.581C70.3311 29.301 72.5631 31.657 76.3761 32.091C77.0581 32.153 77.8021 32.153 78.4841 32.122V26.108H83.2891V35.966ZM86.484 36.4V19.567H91.196V21.799H91.32C92.188 20.001 94.234 19.164 96.962 19.164L96.652 24.651C92.684 24.496 91.289 26.077 91.289 29.983V36.4H86.484ZM116.243 42.29V19.567H120.955V21.582H121.079C122.04 20.094 123.931 19.164 126.225 19.164C130.782 19.164 134.192 22.419 134.192 27.999C134.192 33.579 130.503 36.803 126.194 36.803C124.024 36.803 122.102 35.842 121.141 34.075H121.048V42.29H116.243ZM125.171 32.37C127.403 32.37 129.139 30.634 129.139 28.216C129.139 25.798 127.403 24.093 125.171 24.093C122.908 24.093 121.141 25.705 121.141 28.216C121.141 30.696 122.908 32.37 125.171 32.37ZM170.367 36.059C168.879 36.586 167.205 36.803 165.376 36.803C159.3 36.803 155.425 33.703 155.425 27.906C155.425 22.884 158.711 19.164 163.764 19.164C168.91 19.164 171.483 23.194 171.483 27.751C171.483 28.433 171.452 29.177 171.328 29.735H160.788C161.408 31.874 163.33 32.835 166.244 32.835C167.67 32.835 168.848 32.649 169.964 32.246L170.367 36.059ZM163.826 23.628C162.276 23.628 160.881 24.527 160.54 26.79H166.957C166.864 25.023 165.624 23.628 163.826 23.628ZM174.126 36.4V19.567H178.838V21.799H178.962C179.83 20.001 181.876 19.164 184.604 19.164L184.294 24.651C180.326 24.496 178.931 26.077 178.931 29.983V36.4H174.126Z" fill="#1D1F17"/>
<path d="M108.066 25.705C108.066 24.713 107.074 24.093 104.997 24.093C102.982 24.093 101.091 24.682 99.6033 25.364L99.2623 20.559C100.719 19.784 102.92 19.164 105.493 19.164C110.763 19.164 113.026 21.613 113.026 26.139V36.4H108.128V34.354C106.888 35.842 105.462 36.803 102.982 36.803C100.192 36.803 98.1773 35.346 98.1773 32.525C98.1773 28.929 101.06 27.875 104.656 27.286C106.02 27.038 106.764 26.852 107.415 26.604C107.942 26.387 108.066 26.139 108.066 25.705ZM108.128 29.084C107.632 29.332 106.826 29.642 105.803 29.859C104.191 30.231 103.199 30.634 103.199 32.029C103.199 33.145 104.129 33.672 105.307 33.672C106.671 33.672 107.663 32.835 108.128 31.812V29.084ZM185.939 36.4V32.773L193.472 24.155H186.28V19.567H199.331V23.876L191.798 32.215H199.486V36.4H185.939Z" fill="#181717"/>
<path d="M148.143 27.844C148.143 25.55 147.182 24 144.919 24C142.687 24 141.664 25.519 141.664 27.875V36.4H136.859V12.84H141.571V21.52H141.695C142.687 20.063 144.206 19.164 146.593 19.164C150.778 19.164 152.917 21.954 152.917 26.046V36.4H148.143V27.844Z" fill="#BD2304"/>
</g>
<defs>
<clipPath id="clip0_67_2000">
<rect width="135" height="50" fill="white" transform="translate(65)"/>
</clipPath>
</defs>
</svg>
