<svg width="186" height="50" viewBox="0 0 186 50" fill="none" xmlns="http://www.w3.org/2000/svg">
<path fill-rule="evenodd" clip-rule="evenodd" d="M25.001 50C38.8081 50 50.001 38.8071 50.001 25C50.001 18.7876 47.735 13.1045 43.9846 8.73204L44.0327 8.68389L43.0404 7.69157C42.8018 7.44293 42.558 7.19922 42.3094 6.9606L41.3131 5.96425L41.2646 6.01271C36.8927 2.26445 31.2113 0 25.001 0C11.1939 0 0.000976562 11.1929 0.000976562 25C0.000976562 31.2103 2.26543 36.8917 6.01368 41.2636L5.95772 41.3196L8.67736 44.0392L8.73302 43.9836C13.1055 47.7341 18.7886 50 25.001 50ZM8.67736 41.3196C10.0372 42.6794 10.0373 42.6793 10.0374 42.6792L10.0381 42.6785L10.0409 42.6757L10.0519 42.6647L10.0957 42.6209L10.2678 42.4488L10.9321 41.7845L13.3969 39.3197L21.716 31.0006L42.6729 10.0437L43.9846 8.73204C43.6795 8.37641 43.3646 8.02944 43.0404 7.69157L42.3094 6.9606C41.9702 6.63502 41.6217 6.31891 41.2646 6.01271L39.9532 7.32407L18.9963 28.281L10.6772 36.6001L8.21246 39.0648L7.54814 39.7292L7.37605 39.9013L7.33227 39.945L7.32123 39.9561L7.31846 39.9588L7.31777 39.9595C7.31762 39.9597 7.31754 39.9598 8.67736 41.3196ZM8.67736 41.3196L10.0372 42.6794L8.73302 43.9836C7.7586 43.1478 6.84927 42.2382 6.01368 41.2636L7.31754 39.9598L8.67736 41.3196Z" fill="url(#paint0_linear_67_1997)"/>
<g clip-path="url(#clip0_67_1997)">
<path d="M71.0321 36.75H65.1441L74.1041 14.35H79.3201L88.4401 36.75H82.2001L80.9201 33.454H72.3121L71.0321 36.75ZM74.0401 28.814H79.2241L76.6321 21.294L74.0401 28.814ZM95.6631 20.59L96.0791 23.918C97.4551 22.286 99.4391 21.102 101.199 20.59L101.679 26.03C99.6631 26.062 97.8391 26.542 96.3351 27.598V36.75H91.1191V26.862L90.4471 21.07L95.6631 20.59ZM105.439 30.734V25.23H103.263V20.75H105.567L105.919 16.846L110.655 16.398V20.75H115.327L114.847 25.23H110.655V30.254C110.655 31.63 111.231 32.27 112.223 32.27C112.799 32.27 113.631 32.11 114.495 31.598L116.287 35.726C114.911 36.622 113.215 37.07 111.391 37.07C107.839 37.07 105.439 35.15 105.439 30.734ZM121.398 19.118C119.734 19.118 118.39 17.742 118.39 16.078C118.39 14.414 119.734 13.07 121.398 13.07C123.094 13.07 124.438 14.414 124.438 16.078C124.438 17.742 123.094 19.118 121.398 19.118ZM124.022 20.59V36.75H118.806V21.07L124.022 20.59ZM133.875 26.094L136.019 26.606C139.059 27.342 140.627 28.91 140.627 31.662C140.627 34.894 138.259 37.07 133.939 37.07C131.443 37.07 129.011 36.462 126.995 35.278L128.691 31.502C130.483 32.398 132.211 32.91 133.779 32.91C134.835 32.91 135.347 32.654 135.347 32.078C135.347 31.566 135.123 31.406 134.227 31.182L132.083 30.67C129.011 29.934 127.475 28.398 127.475 25.838C127.475 22.606 129.811 20.43 134.003 20.43C136.435 20.43 138.579 21.102 140.467 22.222L138.771 25.998C137.107 25.038 135.667 24.59 134.131 24.59C133.203 24.59 132.755 24.814 132.755 25.262C132.755 25.71 133.011 25.902 133.875 26.094ZM144.064 30.734V25.23H141.888V20.75H144.192L144.544 16.846L149.28 16.398V20.75H153.952L153.472 25.23H149.28V30.254C149.28 31.63 149.856 32.27 150.848 32.27C151.424 32.27 152.256 32.11 153.12 31.598L154.912 35.726C153.536 36.622 151.84 37.07 150.016 37.07C146.464 37.07 144.064 35.15 144.064 30.734ZM162.007 20.59L162.423 23.918C163.799 22.286 165.783 21.102 167.543 20.59L168.023 26.03C166.007 26.062 164.183 26.542 162.679 27.598V36.75H157.463V26.862L156.791 21.07L162.007 20.59ZM169.91 39.31C172.47 39.31 173.782 38.702 174.358 37.294L174.486 36.942L168.438 20.75H174.038L177.014 30.318L180.118 20.75H185.526L181.334 31.982L179.35 37.294C177.718 41.71 175.318 43.726 171.19 44.11L169.91 39.31Z" fill="#1D1F17"/>
</g>
<defs>
<linearGradient id="paint0_linear_67_1997" x1="7.50098" y1="3" x2="31.501" y2="55.5" gradientUnits="userSpaceOnUse">
<stop stop-color="#5CA3FF"/>
<stop offset="0.459304" stop-color="#8840FC"/>
<stop offset="1" stop-color="#F967BE"/>
</linearGradient>
<clipPath id="clip0_67_1997">
<rect width="121" height="50" fill="white" transform="translate(65)"/>
</clipPath>
</defs>
</svg>
