<svg width="200" height="51" viewBox="0 0 200 51" fill="none" xmlns="http://www.w3.org/2000/svg">
<g clip-path="url(#clip0_1837_904)">
<path fill-rule="evenodd" clip-rule="evenodd" d="M40.0781 28.0528V44.791L48.9953 39.66V22.9219L40.0781 28.0528Z" fill="#BD2304"/>
<path fill-rule="evenodd" clip-rule="evenodd" d="M22.3378 10.4142L9.58126 17.7744L0.664062 12.6435L22.3378 0.152344L37.589 8.96339L28.7072 14.0943L22.3378 10.4142Z" fill="#DC2400"/>
<path fill-rule="evenodd" clip-rule="evenodd" d="M25.6055 36.3954L40.0764 28.0529L48.9759 22.9043L40.0764 17.7734L25.6055 26.1513V36.3954Z" fill="#DC2400"/>
<path fill-rule="evenodd" clip-rule="evenodd" d="M0.664062 12.6445V37.6622L22.3378 50.1534V39.8915L9.58126 32.5313V17.7755L0.664062 12.6445Z" fill="#BD2304"/>
<mask id="mask0_1837_904" style="mask-type:luminance" maskUnits="userSpaceOnUse" x="65" y="0" width="135" height="50">
<path d="M200 0H65V50H200V0Z" fill="white"/>
</mask>
<g mask="url(#mask0_1837_904)">
<path d="M83.2876 35.9648C81.7066 36.5848 79.7846 36.7708 77.7386 36.7708C77.4286 36.7708 77.1186 36.7708 76.8086 36.7398C70.0816 36.4298 65.1836 32.3998 65.1836 25.2698C65.1836 18.0778 70.4226 13.6758 77.4286 13.6758C79.5676 13.6758 81.6446 14.0788 83.1946 14.8228L82.9156 20.1238C81.6446 19.5348 79.8776 19.1008 77.9556 19.1008C73.2126 19.1008 70.3296 21.6738 70.3296 25.5798C70.3296 29.2998 72.5616 31.6558 76.3746 32.0898C77.0566 32.1518 77.8006 32.1518 78.4826 32.1208V26.1068H83.2876V35.9648ZM86.4825 36.3988V19.5658H91.1945V21.7978H91.3185C92.1865 19.9998 94.2325 19.1628 96.9605 19.1628L96.6505 24.6498C92.6825 24.4948 91.2875 26.0758 91.2875 29.9818V36.3988H86.4825ZM116.241 42.2888V19.5658H120.953V21.5808H121.077C122.038 20.0928 123.929 19.1628 126.223 19.1628C130.78 19.1628 134.19 22.4178 134.19 27.9978C134.19 33.5778 130.501 36.8018 126.192 36.8018C124.022 36.8018 122.1 35.8408 121.139 34.0738H121.046V42.2888H116.241ZM125.169 32.3688C127.401 32.3688 129.138 30.6328 129.138 28.2148C129.138 25.7968 127.401 24.0918 125.169 24.0918C122.906 24.0918 121.139 25.7038 121.139 28.2148C121.139 30.6948 122.906 32.3688 125.169 32.3688ZM170.366 36.0578C168.878 36.5848 167.204 36.8018 165.375 36.8018C159.299 36.8018 155.424 33.7018 155.424 27.9048C155.424 22.8828 158.71 19.1628 163.763 19.1628C168.909 19.1628 171.481 23.1928 171.481 27.7498C171.481 28.4318 171.45 29.1758 171.326 29.7338H160.786C161.406 31.8728 163.329 32.8338 166.243 32.8338C167.669 32.8338 168.847 32.6478 169.963 32.2448L170.366 36.0578ZM163.825 23.6268C162.275 23.6268 160.879 24.5258 160.538 26.7888H166.955C166.862 25.0218 165.623 23.6268 163.825 23.6268ZM174.125 36.3988V19.5658H178.836V21.7978H178.961C179.829 19.9998 181.875 19.1628 184.603 19.1628L184.293 24.6498C180.325 24.4948 178.929 26.0758 178.929 29.9818V36.3988H174.125Z" fill="white"/>
<path d="M108.064 25.7051C108.064 24.7131 107.072 24.0931 104.995 24.0931C102.98 24.0931 101.089 24.6821 99.6018 25.3641L99.2608 20.5591C100.717 19.7841 102.918 19.1641 105.491 19.1641C110.761 19.1641 113.024 21.6131 113.024 26.1391V36.4001H108.126V34.3541C106.886 35.8421 105.46 36.8031 102.98 36.8031C100.19 36.8031 98.1758 35.3461 98.1758 32.5251C98.1758 28.9291 101.058 27.8751 104.654 27.2861C106.018 27.0381 106.762 26.8521 107.413 26.6041C107.94 26.3871 108.064 26.1391 108.064 25.7051ZM108.126 29.0841C107.63 29.3321 106.824 29.6421 105.801 29.8591C104.189 30.2311 103.197 30.6341 103.197 32.0291C103.197 33.1451 104.127 33.6721 105.305 33.6721C106.669 33.6721 107.661 32.8351 108.126 31.8121V29.0841ZM185.937 36.4001V32.7731L193.47 24.1551H186.278V19.5671H199.329V23.8761L191.796 32.2151H199.484V36.4001H185.937Z" fill="white"/>
<path d="M148.143 27.8438C148.143 25.5498 147.182 23.9998 144.919 23.9998C142.687 23.9998 141.664 25.5188 141.664 27.8748V36.3998H136.859V12.8398H141.571V21.5198H141.695C142.687 20.0628 144.206 19.1638 146.593 19.1638C150.778 19.1638 152.917 21.9538 152.917 26.0458V36.3998H148.143V27.8438Z" fill="#BD2304"/>
</g>
</g>
<defs>
<clipPath id="clip0_1837_904">
<rect width="200" height="51" fill="white"/>
</clipPath>
</defs>
</svg>
