<svg width="186" height="50" viewBox="0 0 186 50" fill="none" xmlns="http://www.w3.org/2000/svg">
<g clip-path="url(#clip0_1837_924)">
<path fill-rule="evenodd" clip-rule="evenodd" d="M25 50C38.8071 50 50 38.8071 50 25C50 18.7876 47.734 13.1045 43.9836 8.73204L44.0317 8.68389L43.0394 7.69157C42.8008 7.44293 42.557 7.19922 42.3084 6.9606L41.3121 5.96425L41.2636 6.01271C36.8917 2.26445 31.2103 0 25 0C11.1929 0 0 11.1929 0 25C0 31.2103 2.26445 36.8917 6.0127 41.2636L5.95674 41.3196L8.67638 44.0392L8.73204 43.9836C13.1045 47.7341 18.7876 50 25 50ZM8.67638 41.3196C10.0362 42.6794 10.0363 42.6793 10.0364 42.6792L10.0399 42.6757L10.0509 42.6647L10.0947 42.6209L10.2668 42.4488L10.9311 41.7845L13.3959 39.3197L21.715 31.0006L42.6719 10.0437L43.9836 8.73204C43.6785 8.37641 43.3636 8.02944 43.0394 7.69157L42.3084 6.9606C41.9692 6.63502 41.6207 6.31891 41.2636 6.01271L39.9522 7.32407L18.9953 28.281L10.6762 36.6001L8.21148 39.0648L7.54716 39.7292L7.37507 39.9013L7.33129 39.945L7.32025 39.9561L7.31748 39.9588C7.31733 39.959 7.31656 39.9598 8.67638 41.3196ZM8.67638 41.3196L10.0364 42.6792L8.73204 43.9836C7.75762 43.1478 6.84829 42.2382 6.0127 41.2636L7.31656 39.9598L8.67638 41.3196Z" fill="#8F909A"/>
<mask id="mask0_1837_924" style="mask-type:luminance" maskUnits="userSpaceOnUse" x="65" y="0" width="121" height="50">
<path d="M186 0H65V50H186V0Z" fill="white"/>
</mask>
<g mask="url(#mask0_1837_924)">
<path d="M71.0325 36.7503H65.1445L74.1045 14.3503H79.3205L88.4405 36.7503H82.2005L80.9205 33.4543H72.3125L71.0325 36.7503ZM74.0405 28.8143H79.2245L76.6325 21.2943L74.0405 28.8143ZM95.6635 20.5903L96.0795 23.9183C97.4555 22.2863 99.4395 21.1023 101.199 20.5903L101.679 26.0303C99.6635 26.0623 97.8395 26.5423 96.3355 27.5983V36.7503H91.1195V26.8623L90.4475 21.0703L95.6635 20.5903ZM105.439 30.7343V25.2303H103.263V20.7503H105.567L105.919 16.8463L110.655 16.3983V20.7503H115.327L114.847 25.2303H110.655V30.2543C110.655 31.6303 111.231 32.2703 112.223 32.2703C112.799 32.2703 113.631 32.1103 114.495 31.5983L116.287 35.7263C114.911 36.6223 113.215 37.0703 111.391 37.0703C107.839 37.0703 105.439 35.1503 105.439 30.7343ZM121.398 19.1183C119.734 19.1183 118.39 17.7423 118.39 16.0783C118.39 14.4143 119.734 13.0703 121.398 13.0703C123.094 13.0703 124.438 14.4143 124.438 16.0783C124.438 17.7423 123.094 19.1183 121.398 19.1183ZM124.022 20.5903V36.7503H118.806V21.0703L124.022 20.5903ZM133.875 26.0943L136.019 26.6063C139.059 27.3423 140.627 28.9103 140.627 31.6623C140.627 34.8943 138.259 37.0703 133.939 37.0703C131.443 37.0703 129.011 36.4623 126.995 35.2783L128.691 31.5023C130.483 32.3983 132.211 32.9103 133.779 32.9103C134.835 32.9103 135.347 32.6543 135.347 32.0783C135.347 31.5663 135.123 31.4063 134.227 31.1823L132.083 30.6703C129.011 29.9343 127.475 28.3983 127.475 25.8383C127.475 22.6063 129.811 20.4303 134.003 20.4303C136.435 20.4303 138.579 21.1023 140.467 22.2223L138.771 25.9983C137.107 25.0383 135.667 24.5903 134.131 24.5903C133.203 24.5903 132.755 24.8143 132.755 25.2623C132.755 25.7103 133.011 25.9023 133.875 26.0943ZM144.064 30.7343V25.2303H141.888V20.7503H144.192L144.544 16.8463L149.28 16.3983V20.7503H153.952L153.472 25.2303H149.28V30.2543C149.28 31.6303 149.856 32.2703 150.848 32.2703C151.424 32.2703 152.256 32.1103 153.12 31.5983L154.912 35.7263C153.536 36.6223 151.84 37.0703 150.016 37.0703C146.464 37.0703 144.064 35.1503 144.064 30.7343ZM162.007 20.5903L162.423 23.9183C163.799 22.2863 165.783 21.1023 167.543 20.5903L168.023 26.0303C166.007 26.0623 164.183 26.5423 162.679 27.5983V36.7503H157.463V26.8623L156.791 21.0703L162.007 20.5903ZM169.91 39.3103C172.47 39.3103 173.782 38.7023 174.358 37.2943L174.486 36.9423L168.438 20.7503H174.038L177.014 30.3183L180.118 20.7503H185.526L181.334 31.9823L179.35 37.2943C177.718 41.7103 175.318 43.7263 171.19 44.1103L169.91 39.3103Z" fill="#8F909A"/>
</g>
</g>
<defs>
<clipPath id="clip0_1837_924">
<rect width="186" height="50" fill="white"/>
</clipPath>
</defs>
</svg>
