<svg width="50" height="50" viewBox="0 0 50 50" fill="none" xmlns="http://www.w3.org/2000/svg">
<path fill-rule="evenodd" clip-rule="evenodd" d="M25.001 50C38.8081 50 50.001 38.8071 50.001 25C50.001 18.7876 47.735 13.1045 43.9846 8.73204L44.0327 8.68389L43.0404 7.69157C42.8018 7.44293 42.558 7.19922 42.3094 6.9606L41.3131 5.96425L41.2646 6.01271C36.8927 2.26445 31.2113 0 25.001 0C11.1939 0 0.000976562 11.1929 0.000976562 25C0.000976562 31.2103 2.26543 36.8917 6.01368 41.2636L5.95772 41.3196L8.67736 44.0392L8.73302 43.9836C13.1055 47.7341 18.7886 50 25.001 50ZM8.67736 41.3196C10.0372 42.6794 10.0373 42.6793 10.0374 42.6792L10.0381 42.6785L10.0409 42.6757L10.0519 42.6647L10.0957 42.6209L10.2678 42.4488L10.9321 41.7845L13.3969 39.3197L21.716 31.0006L42.6729 10.0437L43.9846 8.73204C43.6795 8.37641 43.3646 8.02944 43.0404 7.69157L42.3094 6.9606C41.9702 6.63502 41.6217 6.31891 41.2646 6.01271L39.9532 7.32407L18.9963 28.281L10.6772 36.6001L8.21246 39.0648L7.54814 39.7292L7.37605 39.9013L7.33227 39.945L7.32123 39.9561L7.31846 39.9588L7.31777 39.9595C7.31762 39.9597 7.31754 39.9598 8.67736 41.3196ZM8.67736 41.3196L10.0372 42.6794L8.73302 43.9836C7.7586 43.1478 6.84927 42.2382 6.01368 41.2636L7.31754 39.9598L8.67736 41.3196Z" fill="url(#paint0_linear_67_1996)"/>
<defs>
<linearGradient id="paint0_linear_67_1996" x1="7.50098" y1="3" x2="31.501" y2="55.5" gradientUnits="userSpaceOnUse">
<stop stop-color="#5CA3FF"/>
<stop offset="0.459304" stop-color="#8840FC"/>
<stop offset="1" stop-color="#F967BE"/>
</linearGradient>
</defs>
</svg>
