<svg width="50" height="50" viewBox="0 0 50 50" fill="none" xmlns="http://www.w3.org/2000/svg">
<path fill-rule="evenodd" clip-rule="evenodd" d="M16.1959 1.60083C9.51036 4.1432 4.14313 9.51044 1.69492 16.1959C0.659134 19.0208 0.094162 22.034 0 24.953C0 27.9662 0.564972 30.9794 1.60075 33.8042L24.9529 10.4521L16.1959 1.60083Z" fill="#B22234"/>
<path fill-rule="evenodd" clip-rule="evenodd" d="M24.9528 0C21.9396 0 18.9264 0.564972 16.1016 1.60075L24.9528 10.452L39.5479 24.9529L48.305 16.1017C45.7626 9.51036 40.4895 4.14313 33.804 1.60075C30.9792 0.564972 27.966 0 24.9528 0Z" fill="#CA9352"/>
<path fill-rule="evenodd" clip-rule="evenodd" d="M10.4518 24.9529L1.60059 33.8041C4.14296 40.4896 9.41603 45.7627 16.1957 48.305C19.0205 49.3408 22.0337 49.9058 25.0469 49.9058C28.0601 49.9058 31.0733 49.3408 33.8981 48.305L24.9528 39.548L10.4518 24.9529Z" fill="#CA9352"/>
<path fill-rule="evenodd" clip-rule="evenodd" d="M48.3053 16.1958L39.5482 24.9529L24.9531 39.548L33.8044 48.3992C40.4898 45.7627 45.7629 40.4896 48.3053 33.8041C49.3411 30.9792 49.906 27.966 49.906 24.9529C50.0002 21.9397 49.4352 19.0207 48.3053 16.1958Z" fill="#B22234"/>
</svg>
