<svg width="50" height="50" viewBox="0 0 50 50" fill="none" xmlns="http://www.w3.org/2000/svg">
<path d="M41.2639 25.031C41.2639 35.254 36.2453 44.2379 28.5006 49.8141C40.6444 48.0793 50 37.6084 50 25.031C50 12.3915 40.6444 1.98262 28.5006 0.247802C36.1834 5.76205 41.2639 14.8079 41.2639 25.031Z" fill="#007DFC"/>
<path d="M17.4722 48.8229C19.207 49.3805 20.9418 49.7523 22.8005 49.8762C29.554 43.6804 33.7671 34.8204 33.7671 24.9691C33.7671 15.1178 29.492 6.25785 22.8005 0.124023C20.9418 0.309896 19.145 0.681644 17.4722 1.17731C23.1723 7.43505 26.6419 15.7994 26.6419 25.0311C26.6419 34.2628 23.1723 42.5652 17.4722 48.8229Z" fill="#007DFC"/>
<path d="M-0.00018401 25.0311C-0.000184386 33.6432 4.33686 41.264 11.0283 45.725C16.5426 40.5206 20.0122 33.1476 20.0122 25.0311C20.0122 16.8526 16.5426 9.47966 11.0283 4.33716C4.33687 8.79812 -0.000183631 16.357 -0.00018401 25.0311Z" fill="#007DFC"/>
</svg>
