<svg width="51" height="51" viewBox="0 0 51 51" fill="none" xmlns="http://www.w3.org/2000/svg">
<path fill-rule="evenodd" clip-rule="evenodd" d="M0.685185 29.2612C0.5 29.2612 0.5 29.2612 0.5 29.2612C2.16667 41.1131 11.9815 50.002 23.8333 50.7427C24.0185 50.7427 24.2037 50.7427 24.5741 50.7427C24.9444 50.7427 25.3148 50.7427 25.6852 50.7427C26.2407 50.7427 26.7963 50.7427 27.3519 50.7427C39.0185 50.002 48.6481 41.1131 50.5 29.2612C50.3148 29.2612 50.3148 29.2612 50.3148 29.2612C48.463 29.2612 46.7963 29.4464 44.9444 29.8168C42.9074 38.8909 34.9444 45.3723 25.5 45.3723C16.2407 45.3723 8.09259 38.8909 6.24074 29.6316C4.38889 29.4464 2.53704 29.2612 0.685185 29.2612Z" fill="#5BD0F4"/>
<path fill-rule="evenodd" clip-rule="evenodd" d="M25.5 0.372314C24.9444 0.372314 24.3889 0.372314 23.8333 0.372314C11.9815 1.29824 2.16667 10.1871 0.5 22.039H0.685185C2.53704 22.039 4.2037 21.8538 6.05556 21.4834C8.09259 12.4094 16.0556 5.92787 25.3148 5.92787C34.5741 5.92787 42.7222 12.4094 44.5741 21.4834C46.2407 21.8538 48.0926 22.039 49.9444 22.039H50.1296C48.6481 10.1871 39.0185 1.29824 27.1667 0.5575C26.9815 0.5575 26.6111 0.5575 26.4259 0.5575C26.0556 0.372314 25.6852 0.372314 25.5 0.372314Z" fill="#5BD0F4"/>
<path fill-rule="evenodd" clip-rule="evenodd" d="M46.0554 25.5575C37.9073 24.4464 30.4999 20.1872 25.4999 13.5205C20.4999 20.1872 13.0925 24.4464 4.94434 25.5575C13.0925 26.6687 20.6851 31.1131 25.4999 37.7798C30.4999 31.1131 37.9073 26.6687 46.0554 25.5575Z" fill="#283D74"/>
</svg>
